<svg width="128" height="128" viewBox="0 0 128 128" xmlns="http://www.w3.org/2000/svg">
  <defs>
    <linearGradient id="grad1" x1="0%" y1="0%" x2="100%" y2="100%">
      <stop offset="0%" style="stop-color:#667eea;stop-opacity:1" />
      <stop offset="100%" style="stop-color:#764ba2;stop-opacity:1" />
    </linearGradient>
  </defs>
  
  <!-- Background circle -->
  <circle cx="64" cy="64" r="60" fill="url(#grad1)" stroke="#4CAF50" stroke-width="4"/>
  
  <!-- Form icon -->
  <rect x="32" y="28" width="64" height="72" rx="8" fill="white" opacity="0.9"/>
  
  <!-- Form lines -->
  <rect x="40" y="40" width="48" height="3" rx="1.5" fill="#4CAF50"/>
  <rect x="40" y="50" width="40" height="3" rx="1.5" fill="#4CAF50"/>
  <rect x="40" y="60" width="44" height="3" rx="1.5" fill="#4CAF50"/>
  <rect x="40" y="70" width="36" height="3" rx="1.5" fill="#4CAF50"/>
  <rect x="40" y="80" width="42" height="3" rx="1.5" fill="#4CAF50"/>
  
  <!-- Pencil icon -->
  <path d="M 85 35 L 95 25 L 103 33 L 93 43 Z" fill="#FF9800"/>
  <path d="M 95 25 L 97 23 L 105 31 L 103 33 Z" fill="#F57C00"/>
  
  <!-- Checkmark -->
  <circle cx="88" cy="88" r="12" fill="#4CAF50"/>
  <path d="M 82 88 L 86 92 L 94 84" stroke="white" stroke-width="3" fill="none" stroke-linecap="round" stroke-linejoin="round"/>
</svg>
